<svg id="svg" xmlns="http://www.w3.org/2000/svg" xmlns:xlink="http://www.w3.org/1999/xlink" width="400" height="66.93440428380187" viewBox="0, 0, 400,66.93440428380187"><g id="svgg"><path id="path0" d="M10.174 0.215 C 10.174 0.334,7.885 11.512,5.087 25.056 C 2.289 38.599,0.000 49.828,0.000 50.007 C 0.000 50.187,1.687 50.335,3.748 50.335 C 5.810 50.335,7.497 50.262,7.497 50.173 C 7.497 50.084,8.822 43.410,10.442 35.341 C 12.062 27.273,13.387 20.539,13.387 20.379 C 13.387 20.218,16.058 25.386,19.323 31.864 C 22.588 38.341,26.107 45.170,27.142 47.039 L 29.026 50.437 29.940 48.913 C 31.972 45.524,41.680 26.294,42.854 23.330 C 43.546 21.583,44.227 20.499,44.368 20.920 C 44.509 21.342,45.987 28.072,47.653 35.877 L 50.683 50.067 54.569 50.225 C 58.097 50.369,58.427 50.295,58.161 49.422 C 57.797 48.231,47.657 0.874,47.657 0.367 C 47.657 -1.980,40.315 12.044,30.229 33.655 L 29.142 35.984 20.214 17.992 C 12.806 3.062,10.174 -1.598,10.174 0.215 M199.732 25.167 L 199.732 50.335 203.481 50.335 L 207.229 50.335 207.229 25.167 L 207.229 0.000 203.481 0.000 L 199.732 0.000 199.732 25.167 M235.074 25.167 L 235.074 50.335 238.822 50.335 L 242.570 50.335 242.570 40.940 L 242.570 31.546 246.412 31.703 L 250.253 31.861 255.113 41.083 L 259.973 50.304 264.430 50.320 L 268.887 50.335 267.129 47.256 C 266.162 45.562,263.504 40.947,261.223 37.000 L 257.075 29.824 259.391 28.355 C 263.876 25.511,266.068 21.345,266.108 15.591 C 266.184 4.442,259.551 0.025,242.704 0.008 L 235.074 0.000 235.074 25.167 M67.470 3.593 C 62.151 5.548,63.423 12.851,69.082 12.851 C 74.184 12.851,75.435 5.485,70.619 3.806 C 68.771 3.162,68.662 3.155,67.470 3.593 M317.743 3.981 C 313.203 5.957,315.040 12.851,320.107 12.851 C 325.246 12.851,326.589 5.491,321.757 3.806 C 319.695 3.088,319.806 3.083,317.743 3.981 M254.741 7.938 C 257.596 9.420,258.808 11.681,258.808 15.529 C 258.808 22.113,255.057 25.097,246.720 25.144 L 242.570 25.167 242.570 15.733 L 242.570 6.298 247.523 6.530 C 251.247 6.705,253.039 7.055,254.741 7.938 M91.273 18.916 C 84.360 21.580,80.947 27.579,81.515 36.067 C 82.405 49.371,96.460 55.682,106.185 47.144 L 108.166 45.404 108.166 47.796 C 108.166 58.534,101.547 62.841,91.436 58.683 L 88.362 57.419 87.852 59.365 C 86.523 64.437,86.447 64.057,88.980 64.985 C 97.090 67.954,106.234 67.029,110.591 62.798 C 114.761 58.748,114.839 58.298,115.019 37.349 L 115.179 18.742 111.672 18.742 L 108.166 18.742 108.166 21.256 L 108.166 23.771 106.426 22.090 C 102.790 18.577,95.899 17.134,91.273 18.916 M171.084 19.155 C 158.518 23.301,157.614 43.770,169.746 49.470 C 173.287 51.134,183.335 51.107,187.004 49.424 L 189.537 48.262 188.560 46.079 C 187.242 43.137,187.361 43.189,184.159 44.140 C 176.169 46.513,170.856 44.423,168.969 38.163 L 168.609 36.969 180.021 36.825 L 191.432 36.680 191.395 33.161 C 191.269 21.380,182.556 15.371,171.084 19.155 M285.345 18.945 C 268.556 24.945,271.980 49.734,289.739 50.763 C 305.315 51.664,313.280 33.917,302.371 22.619 C 298.547 18.659,290.816 16.991,285.345 18.945 M343.236 18.706 C 330.055 22.716,328.741 42.935,341.246 49.345 C 346.602 52.090,355.033 50.801,358.220 46.749 L 359.304 45.371 359.304 47.853 L 359.304 50.335 363.060 50.335 L 366.817 50.335 366.675 34.672 L 366.533 19.009 363.052 19.009 L 359.572 19.009 359.412 21.190 L 359.252 23.370 357.427 21.650 C 354.331 18.730,347.689 17.352,343.236 18.706 M383.274 18.709 C 378.783 20.153,376.316 23.189,376.316 27.270 C 376.316 32.177,378.429 34.331,386.640 37.794 C 391.964 40.040,392.503 40.434,392.503 42.088 C 392.503 45.181,385.320 46.039,380.289 43.548 L 377.980 42.404 376.749 45.165 C 375.265 48.493,375.227 48.406,378.721 49.624 C 386.028 52.172,396.452 50.357,398.594 46.164 C 402.018 39.462,399.045 34.962,388.614 31.059 C 385.173 29.771,384.157 29.031,383.695 27.470 C 382.777 24.378,389.245 22.824,393.662 25.076 L 395.583 26.055 396.995 23.177 L 398.406 20.299 396.392 19.429 C 394.099 18.439,385.570 17.971,383.274 18.709 M65.328 34.538 L 65.328 50.335 69.076 50.335 L 72.825 50.335 72.825 34.538 L 72.825 18.742 69.076 18.742 L 65.328 18.742 65.328 34.538 M124.335 30.656 C 124.557 43.377,124.894 45.178,127.603 48.121 C 131.333 52.174,140.659 51.753,144.745 47.347 L 146.139 45.843 146.498 48.089 L 146.857 50.335 150.010 50.335 L 153.162 50.335 153.020 34.672 L 152.878 19.009 149.296 18.852 L 145.713 18.694 145.547 29.122 C 145.395 38.719,145.292 39.670,144.261 41.060 C 140.654 45.922,134.926 46.268,132.665 41.760 C 131.868 40.171,131.728 38.316,131.728 29.317 L 131.727 18.742 127.927 18.742 L 124.127 18.742 124.335 30.656 M316.823 19.099 C 316.627 19.295,316.466 28.157,316.466 38.792 C 316.466 61.641,316.678 60.718,311.492 60.424 L 308.254 60.241 307.586 63.186 C 306.775 66.768,306.603 66.589,311.091 66.842 C 317.054 67.179,320.962 65.189,322.956 60.799 C 323.853 58.825,323.940 56.882,323.951 38.688 L 323.963 18.742 320.571 18.742 C 318.706 18.742,317.019 18.902,316.823 19.099 M101.041 24.896 C 104.739 25.639,107.368 30.025,107.342 35.407 C 107.287 46.743,91.555 48.255,89.462 37.125 C 88.125 30.016,92.957 23.226,98.527 24.385 C 98.969 24.477,100.100 24.707,101.041 24.896 M181.150 25.276 C 182.899 25.951,184.203 28.180,184.203 30.495 L 184.203 32.129 176.403 32.129 L 168.603 32.129 168.978 30.924 C 169.797 28.294,170.221 27.527,171.528 26.312 C 173.814 24.185,177.337 23.806,181.150 25.276 M295.488 25.542 C 301.940 30.312,300.294 43.412,293.073 44.766 C 284.357 46.401,278.837 35.251,284.402 27.251 C 286.610 24.076,292.317 23.197,295.488 25.542 M353.949 25.778 C 364.401 32.146,356.208 49.391,345.382 43.812 C 338.729 40.384,338.907 27.971,345.649 25.148 C 347.763 24.263,351.989 24.584,353.949 25.778 " stroke="none" fill="#000000" fill-rule="evenodd"></path></g></svg>